<svg width="16" height="16" viewBox="0 0 16 16" fill="none" xmlns="http://www.w3.org/2000/svg">
<path fill-rule="evenodd" clip-rule="evenodd" d="M3.5286 6.19526C3.78895 5.93491 4.21106 5.93491 4.47141 6.19526L8 9.72386L11.5286 6.19526C11.7889 5.93491 12.2111 5.93491 12.4714 6.19526C12.7318 6.45561 12.7318 6.87772 12.4714 7.13807L8.94281 10.6667C8.42211 11.1874 7.57789 11.1874 7.05719 10.6667L3.5286 7.13807C3.26825 6.87772 3.26825 6.45561 3.5286 6.19526Z" fill="#3A424E"/>
<path fill-rule="evenodd" clip-rule="evenodd" d="M3.5286 6.19526C3.78895 5.93491 4.21106 5.93491 4.47141 6.19526L8 9.72386L11.5286 6.19526C11.7889 5.93491 12.2111 5.93491 12.4714 6.19526C12.7318 6.45561 12.7318 6.87772 12.4714 7.13807L8.94281 10.6667C8.42211 11.1874 7.57789 11.1874 7.05719 10.6667L3.5286 7.13807C3.26825 6.87772 3.26825 6.45561 3.5286 6.19526Z" fill="black" fill-opacity="0.2"/>
</svg>
