<svg width="24" height="24" viewBox="0 0 24 24" fill="none" xmlns="http://www.w3.org/2000/svg">
<path fill-rule="evenodd" clip-rule="evenodd" d="M14.0213 3.17089C14.2032 2.64942 14.7734 2.37416 15.2949 2.55608C18.1679 3.55832 20.442 5.8324 21.4442 8.7054C21.6261 9.22686 21.3508 9.79706 20.8294 9.97898C20.3079 10.1609 19.7377 9.88563 19.5558 9.36416C18.7545 7.06711 16.9332 5.24579 14.6361 4.44447C14.1146 4.26256 13.8394 3.69236 14.0213 3.17089ZM7.59335 5.08935C7.35855 4.97058 7.08125 4.97058 6.84644 5.08935C6.76435 5.13087 6.65424 5.2232 6.11307 5.76437L5.96904 5.9084C5.45452 6.42292 5.32637 6.56209 5.22311 6.74591C5.10256 6.9605 4.99927 7.3577 5 7.60383C5.00065 7.82241 5.03127 7.95114 5.18271 8.48469C5.92402 11.0965 7.32244 13.5613 9.38071 15.6196C11.439 17.6778 13.9038 19.0763 16.5156 19.8176C17.0491 19.969 17.1779 19.9996 17.3964 20.0003C17.6426 20.001 18.0398 19.8977 18.2544 19.7772C18.4382 19.6739 18.5774 19.5457 19.0919 19.0312L19.799 19.7383L19.0919 19.0312L19.2359 18.8872C19.7771 18.346 19.8694 18.2359 19.9109 18.1538C20.0297 17.919 20.0297 17.6417 19.9109 17.4069C19.8694 17.3248 19.7771 17.2147 19.2359 16.6735L19.943 15.9664L19.2359 16.6735L19.0578 16.4955C18.7023 16.14 18.6307 16.0761 18.5801 16.0432C18.3059 15.8649 17.9523 15.8649 17.6781 16.0432C17.6275 16.0761 17.5559 16.1399 17.2003 16.4955C17.1933 16.5025 17.1861 16.5097 17.1787 16.5172C17.0973 16.5989 16.9885 16.7081 16.8577 16.8018L16.2755 15.9888L16.8577 16.8018C16.3912 17.1359 15.7588 17.2437 15.208 17.0831C15.0542 17.0383 14.9275 16.9772 14.8342 16.9322C14.8266 16.9285 14.8192 16.9249 14.812 16.9215C13.3872 16.2374 12.0527 15.3052 10.8739 14.1264C9.69511 12.9476 8.7629 11.6131 8.07878 10.1882C8.07534 10.1811 8.07178 10.1737 8.06811 10.1661C8.02308 10.0727 7.96197 9.94604 7.91715 9.79231L8.86788 9.51516L7.91715 9.7923C7.75658 9.24146 7.86441 8.6091 8.19845 8.1426L8.19845 8.1426C8.29214 8.01175 8.40142 7.90293 8.48308 7.8216C8.49056 7.81416 8.4978 7.80694 8.50478 7.79997C8.86032 7.44442 8.92421 7.37278 8.95709 7.32222L8.95709 7.32221C9.1354 7.04797 9.1354 6.69442 8.95709 6.42018C8.92421 6.36961 8.86032 6.29797 8.50478 5.94242L8.32673 5.76437C7.78556 5.2232 7.67545 5.13087 7.59335 5.08935ZM5.94375 3.30465C6.74612 2.89881 7.69368 2.89881 8.49605 3.30465C8.90432 3.51115 9.25739 3.86526 9.65028 4.25932C9.68026 4.28938 9.71046 4.31968 9.74094 4.35016L9.91899 4.52821C9.93908 4.5483 9.95903 4.5682 9.97882 4.58796C10.2382 4.8468 10.4703 5.07853 10.6338 5.32999L9.79547 5.87508L10.6338 5.32999C11.2431 6.26713 11.2431 7.47526 10.6338 8.4124C10.4703 8.66386 10.2382 8.89559 9.97882 9.15443C9.95903 9.17418 9.93908 9.19409 9.91899 9.21418C9.89439 9.23879 9.87524 9.25794 9.85875 9.27461C9.8652 9.28815 9.87265 9.30367 9.88174 9.32261C10.4695 10.5468 11.2711 11.6952 12.2881 12.7122C13.3051 13.7292 14.4535 14.5308 15.6777 15.1185L15.2448 16.02L15.6777 15.1185C15.6966 15.1276 15.7121 15.1351 15.7257 15.1415C15.7348 15.1325 15.7446 15.1227 15.7557 15.1116C15.7649 15.1025 15.7749 15.0924 15.7861 15.0813C15.8062 15.0612 15.8261 15.0412 15.8458 15.0215C16.1047 14.7621 16.3364 14.5299 16.5879 14.3664C17.525 13.7571 18.7331 13.7571 19.6703 14.3664C19.9217 14.5299 20.1535 14.7621 20.4123 15.0215C20.4321 15.0413 20.452 15.0612 20.4721 15.0813L19.8435 15.7098L20.4721 15.0813L20.6501 15.2593C20.6806 15.2898 20.7109 15.32 20.741 15.35C21.135 15.7429 21.4891 16.096 21.6956 16.5042C22.1015 17.3066 22.1015 18.2542 21.6956 19.0565C21.4891 19.4648 21.135 19.8179 20.741 20.2108C20.7109 20.2407 20.6806 20.2709 20.6501 20.3014L20.5061 20.4454C20.4841 20.4674 20.4624 20.4891 20.4409 20.5106C20.0191 20.933 19.685 21.2674 19.2339 21.5209C18.7184 21.8104 17.9817 22.002 17.3905 22.0003C16.8741 21.9987 16.4961 21.8913 16.024 21.757C16.0059 21.7519 15.9878 21.7468 15.9695 21.7416C13.038 20.9095 10.2721 19.3394 7.9665 17.0338C5.66092 14.7282 4.09074 11.9622 3.2587 9.03078C3.25351 9.01248 3.24835 8.99433 3.24323 8.97632C3.10902 8.50419 3.00155 8.12613 3.00001 7.60978C2.99825 7.01855 3.18983 6.28185 3.4794 5.76638L3.4794 5.76638C3.73283 5.31523 4.06724 4.98122 4.48964 4.55933C4.51114 4.53785 4.53287 4.51615 4.55483 4.49419L5.26193 5.20129L4.55483 4.49419L4.69886 4.35016C4.72934 4.31968 4.75954 4.28938 4.78952 4.25932C5.18241 3.86526 5.53548 3.51115 5.94375 3.30465L6.3951 4.197L5.94375 3.30465ZM13.0572 6.00844C13.2412 5.48772 13.8125 5.2148 14.3332 5.39884C16.3229 6.10209 17.8982 7.67735 18.6014 9.66703C18.7855 10.1877 18.5126 10.7591 17.9918 10.9431C17.4711 11.1272 16.8998 10.8542 16.7157 10.3335C16.2139 8.91354 15.0867 7.78641 13.6668 7.28452C13.146 7.10048 12.8731 6.52915 13.0572 6.00844Z" fill="#3A424E"/>
<path fill-rule="evenodd" clip-rule="evenodd" d="M14.0213 3.17089C14.2032 2.64942 14.7734 2.37416 15.2949 2.55608C18.1679 3.55832 20.442 5.8324 21.4442 8.7054C21.6261 9.22686 21.3508 9.79706 20.8294 9.97898C20.3079 10.1609 19.7377 9.88563 19.5558 9.36416C18.7545 7.06711 16.9332 5.24579 14.6361 4.44447C14.1146 4.26256 13.8394 3.69236 14.0213 3.17089ZM7.59335 5.08935C7.35855 4.97058 7.08125 4.97058 6.84644 5.08935C6.76435 5.13087 6.65424 5.2232 6.11307 5.76437L5.96904 5.9084C5.45452 6.42292 5.32637 6.56209 5.22311 6.74591C5.10256 6.9605 4.99927 7.3577 5 7.60383C5.00065 7.82241 5.03127 7.95114 5.18271 8.48469C5.92402 11.0965 7.32244 13.5613 9.38071 15.6196C11.439 17.6778 13.9038 19.0763 16.5156 19.8176C17.0491 19.969 17.1779 19.9996 17.3964 20.0003C17.6426 20.001 18.0398 19.8977 18.2544 19.7772C18.4382 19.6739 18.5774 19.5457 19.0919 19.0312L19.799 19.7383L19.0919 19.0312L19.2359 18.8872C19.7771 18.346 19.8694 18.2359 19.9109 18.1538C20.0297 17.919 20.0297 17.6417 19.9109 17.4069C19.8694 17.3248 19.7771 17.2147 19.2359 16.6735L19.943 15.9664L19.2359 16.6735L19.0578 16.4955C18.7023 16.14 18.6307 16.0761 18.5801 16.0432C18.3059 15.8649 17.9523 15.8649 17.6781 16.0432C17.6275 16.0761 17.5559 16.1399 17.2003 16.4955C17.1933 16.5025 17.1861 16.5097 17.1787 16.5172C17.0973 16.5989 16.9885 16.7081 16.8577 16.8018L16.2755 15.9888L16.8577 16.8018C16.3912 17.1359 15.7588 17.2437 15.208 17.0831C15.0542 17.0383 14.9275 16.9772 14.8342 16.9322C14.8266 16.9285 14.8192 16.9249 14.812 16.9215C13.3872 16.2374 12.0527 15.3052 10.8739 14.1264C9.69511 12.9476 8.7629 11.6131 8.07878 10.1882C8.07534 10.1811 8.07178 10.1737 8.06811 10.1661C8.02308 10.0727 7.96197 9.94604 7.91715 9.79231L8.86788 9.51516L7.91715 9.7923C7.75658 9.24146 7.86441 8.6091 8.19845 8.1426L8.19845 8.1426C8.29214 8.01175 8.40142 7.90293 8.48308 7.8216C8.49056 7.81416 8.4978 7.80694 8.50478 7.79997C8.86032 7.44442 8.92421 7.37278 8.95709 7.32222L8.95709 7.32221C9.1354 7.04797 9.1354 6.69442 8.95709 6.42018C8.92421 6.36961 8.86032 6.29797 8.50478 5.94242L8.32673 5.76437C7.78556 5.2232 7.67545 5.13087 7.59335 5.08935ZM5.94375 3.30465C6.74612 2.89881 7.69368 2.89881 8.49605 3.30465C8.90432 3.51115 9.25739 3.86526 9.65028 4.25932C9.68026 4.28938 9.71046 4.31968 9.74094 4.35016L9.91899 4.52821C9.93908 4.5483 9.95903 4.5682 9.97882 4.58796C10.2382 4.8468 10.4703 5.07853 10.6338 5.32999L9.79547 5.87508L10.6338 5.32999C11.2431 6.26713 11.2431 7.47526 10.6338 8.4124C10.4703 8.66386 10.2382 8.89559 9.97882 9.15443C9.95903 9.17418 9.93908 9.19409 9.91899 9.21418C9.89439 9.23879 9.87524 9.25794 9.85875 9.27461C9.8652 9.28815 9.87265 9.30367 9.88174 9.32261C10.4695 10.5468 11.2711 11.6952 12.2881 12.7122C13.3051 13.7292 14.4535 14.5308 15.6777 15.1185L15.2448 16.02L15.6777 15.1185C15.6966 15.1276 15.7121 15.1351 15.7257 15.1415C15.7348 15.1325 15.7446 15.1227 15.7557 15.1116C15.7649 15.1025 15.7749 15.0924 15.7861 15.0813C15.8062 15.0612 15.8261 15.0412 15.8458 15.0215C16.1047 14.7621 16.3364 14.5299 16.5879 14.3664C17.525 13.7571 18.7331 13.7571 19.6703 14.3664C19.9217 14.5299 20.1535 14.7621 20.4123 15.0215C20.4321 15.0413 20.452 15.0612 20.4721 15.0813L19.8435 15.7098L20.4721 15.0813L20.6501 15.2593C20.6806 15.2898 20.7109 15.32 20.741 15.35C21.135 15.7429 21.4891 16.096 21.6956 16.5042C22.1015 17.3066 22.1015 18.2542 21.6956 19.0565C21.4891 19.4648 21.135 19.8179 20.741 20.2108C20.7109 20.2407 20.6806 20.2709 20.6501 20.3014L20.5061 20.4454C20.4841 20.4674 20.4624 20.4891 20.4409 20.5106C20.0191 20.933 19.685 21.2674 19.2339 21.5209C18.7184 21.8104 17.9817 22.002 17.3905 22.0003C16.8741 21.9987 16.4961 21.8913 16.024 21.757C16.0059 21.7519 15.9878 21.7468 15.9695 21.7416C13.038 20.9095 10.2721 19.3394 7.9665 17.0338C5.66092 14.7282 4.09074 11.9622 3.2587 9.03078C3.25351 9.01248 3.24835 8.99433 3.24323 8.97632C3.10902 8.50419 3.00155 8.12613 3.00001 7.60978C2.99825 7.01855 3.18983 6.28185 3.4794 5.76638L3.4794 5.76638C3.73283 5.31523 4.06724 4.98122 4.48964 4.55933C4.51114 4.53785 4.53287 4.51615 4.55483 4.49419L5.26193 5.20129L4.55483 4.49419L4.69886 4.35016C4.72934 4.31968 4.75954 4.28938 4.78952 4.25932C5.18241 3.86526 5.53548 3.51115 5.94375 3.30465L6.3951 4.197L5.94375 3.30465ZM13.0572 6.00844C13.2412 5.48772 13.8125 5.2148 14.3332 5.39884C16.3229 6.10209 17.8982 7.67735 18.6014 9.66703C18.7855 10.1877 18.5126 10.7591 17.9918 10.9431C17.4711 11.1272 16.8998 10.8542 16.7157 10.3335C16.2139 8.91354 15.0867 7.78641 13.6668 7.28452C13.146 7.10048 12.8731 6.52915 13.0572 6.00844Z" fill="black" fill-opacity="0.2"/>
</svg>
