<svg width="20" height="20" viewBox="0 0 20 20" fill="none" xmlns="http://www.w3.org/2000/svg">
<path fill-rule="evenodd" clip-rule="evenodd" d="M11.7713 1.17089C11.9532 0.649425 12.5234 0.374163 13.0449 0.556076C15.9179 1.55832 18.192 3.8324 19.1942 6.7054C19.3761 7.22686 19.1008 7.79706 18.5794 7.97898C18.0579 8.16089 17.4877 7.88563 17.3058 7.36416C16.5045 5.06711 14.6832 3.24579 12.3861 2.44447C11.8646 2.26256 11.5894 1.69236 11.7713 1.17089ZM5.34335 3.08935C5.10855 2.97058 4.83125 2.97058 4.59644 3.08935C4.51435 3.13087 4.40424 3.2232 3.86307 3.76437L3.71904 3.9084C3.20452 4.42292 3.07637 4.56209 2.97311 4.74591C2.85256 4.9605 2.74927 5.3577 2.75 5.60383C2.75065 5.82241 2.78127 5.95114 2.93271 6.48469C3.67402 9.09651 5.07244 11.5613 7.13071 13.6196C9.18898 15.6778 11.6538 17.0763 14.2656 17.8176C14.7991 17.969 14.9279 17.9996 15.1464 18.0003C15.3926 18.001 15.7898 17.8977 16.0044 17.7772C16.1882 17.6739 16.3274 17.5457 16.8419 17.0312L17.549 17.7383L16.8419 17.0312L16.9859 16.8872C17.5271 16.346 17.6194 16.2359 17.6609 16.1538C17.7797 15.919 17.7797 15.6417 17.6609 15.4069C17.6194 15.3248 17.5271 15.2147 16.9859 14.6735L17.693 13.9664L16.9859 14.6735L16.8078 14.4955C16.4523 14.14 16.3807 14.0761 16.3301 14.0432C16.0559 13.8649 15.7023 13.8649 15.4281 14.0432C15.3775 14.0761 15.3059 14.1399 14.9503 14.4955C14.9433 14.5025 14.9361 14.5097 14.9287 14.5172C14.8473 14.5989 14.7385 14.7081 14.6077 14.8018L14.0255 13.9888L14.6077 14.8018C14.1412 15.1359 13.5088 15.2437 12.958 15.0831C12.8042 15.0383 12.6775 14.9772 12.5842 14.9322C12.5766 14.9285 12.5692 14.9249 12.562 14.9215C11.1372 14.2374 9.8027 13.3052 8.62391 12.1264C7.44511 10.9476 6.5129 9.61312 5.82878 8.18825C5.82534 8.18109 5.82178 8.17371 5.81811 8.16611C5.77308 8.07275 5.71197 7.94604 5.66715 7.79231L6.61788 7.51516L5.66715 7.7923C5.50658 7.24146 5.61441 6.6091 5.94845 6.1426L5.94845 6.1426C6.04214 6.01175 6.15142 5.90293 6.23308 5.8216C6.24056 5.81416 6.2478 5.80694 6.25478 5.79997C6.61032 5.44442 6.67421 5.37278 6.70709 5.32222L6.70709 5.32221C6.8854 5.04797 6.8854 4.69442 6.70709 4.42018C6.67421 4.36961 6.61032 4.29797 6.25478 3.94242L6.07673 3.76437C5.53556 3.2232 5.42545 3.13087 5.34335 3.08935ZM3.69375 1.30465C4.49612 0.898814 5.44368 0.898814 6.24605 1.30465C6.65432 1.51115 7.00739 1.86526 7.40028 2.25932C7.43026 2.28938 7.46046 2.31968 7.49094 2.35016L7.66899 2.52821C7.68908 2.5483 7.70903 2.5682 7.72882 2.58796C7.98816 2.8468 8.22035 3.07853 8.38384 3.32999L7.54547 3.87508L8.38385 3.32999C8.99315 4.26713 8.99315 5.47526 8.38384 6.4124C8.22035 6.66386 7.98816 6.89559 7.72882 7.15443C7.70903 7.17418 7.68908 7.19409 7.66899 7.21418C7.64439 7.23879 7.62524 7.25794 7.60875 7.27461C7.6152 7.28815 7.62265 7.30367 7.63174 7.32261C8.2195 8.5468 9.02112 9.69516 10.0381 10.7122C11.0551 11.7292 12.2035 12.5308 13.4277 13.1185L12.9948 14.02L13.4277 13.1185C13.4466 13.1276 13.4621 13.1351 13.4757 13.1415C13.4848 13.1325 13.4946 13.1227 13.5057 13.1116C13.5149 13.1025 13.5249 13.0924 13.5361 13.0813C13.5562 13.0612 13.5761 13.0412 13.5958 13.0215C13.8547 12.7621 14.0864 12.5299 14.3379 12.3664C15.275 11.7571 16.4831 11.7571 17.4203 12.3664C17.6717 12.5299 17.9035 12.7621 18.1623 13.0215C18.1821 13.0413 18.202 13.0612 18.2221 13.0813L17.5935 13.7098L18.2221 13.0813L18.4001 13.2593C18.4306 13.2898 18.4609 13.32 18.491 13.35C18.885 13.7429 19.2391 14.096 19.4456 14.5042C19.8515 15.3066 19.8515 16.2542 19.4456 17.0565C19.2391 17.4648 18.885 17.8179 18.491 18.2108C18.4609 18.2407 18.4306 18.2709 18.4001 18.3014L18.2561 18.4454C18.2341 18.4674 18.2124 18.4891 18.1909 18.5106C17.7691 18.933 17.435 19.2674 16.9839 19.5209C16.4684 19.8104 15.7317 20.002 15.1405 20.0003C14.6241 19.9987 14.2461 19.8913 13.774 19.757C13.7559 19.7519 13.7378 19.7468 13.7195 19.7416C10.788 18.9095 8.02207 17.3394 5.7165 15.0338C3.41092 12.7282 1.84074 9.96225 1.0087 7.03078C1.00351 7.01248 0.99835 6.99433 0.99323 6.97632C0.859019 6.50419 0.751548 6.12613 0.750012 5.60978C0.748252 5.01855 0.939834 4.28185 1.2294 3.76638L1.2294 3.76638C1.48283 3.31523 1.81724 2.98122 2.23964 2.55933C2.26114 2.53785 2.28287 2.51615 2.30483 2.49419L3.01193 3.20129L2.30483 2.49419L2.44886 2.35016C2.47934 2.31968 2.50954 2.28938 2.53952 2.25932C2.93241 1.86526 3.28548 1.51115 3.69375 1.30465L4.1451 2.197L3.69375 1.30465ZM10.8072 4.00844C10.9912 3.48772 11.5625 3.2148 12.0832 3.39884C14.0729 4.10209 15.6482 5.67735 16.3514 7.66703C16.5355 8.18774 16.2626 8.75907 15.7418 8.94311C15.2211 9.12716 14.6498 8.85423 14.4657 8.33352C13.9639 6.91354 12.8367 5.78641 11.4168 5.28452C10.896 5.10048 10.6231 4.52915 10.8072 4.00844Z" fill="#3A424E"/>
<path fill-rule="evenodd" clip-rule="evenodd" d="M11.7713 1.17089C11.9532 0.649425 12.5234 0.374163 13.0449 0.556076C15.9179 1.55832 18.192 3.8324 19.1942 6.7054C19.3761 7.22686 19.1008 7.79706 18.5794 7.97898C18.0579 8.16089 17.4877 7.88563 17.3058 7.36416C16.5045 5.06711 14.6832 3.24579 12.3861 2.44447C11.8646 2.26256 11.5894 1.69236 11.7713 1.17089ZM5.34335 3.08935C5.10855 2.97058 4.83125 2.97058 4.59644 3.08935C4.51435 3.13087 4.40424 3.2232 3.86307 3.76437L3.71904 3.9084C3.20452 4.42292 3.07637 4.56209 2.97311 4.74591C2.85256 4.9605 2.74927 5.3577 2.75 5.60383C2.75065 5.82241 2.78127 5.95114 2.93271 6.48469C3.67402 9.09651 5.07244 11.5613 7.13071 13.6196C9.18898 15.6778 11.6538 17.0763 14.2656 17.8176C14.7991 17.969 14.9279 17.9996 15.1464 18.0003C15.3926 18.001 15.7898 17.8977 16.0044 17.7772C16.1882 17.6739 16.3274 17.5457 16.8419 17.0312L17.549 17.7383L16.8419 17.0312L16.9859 16.8872C17.5271 16.346 17.6194 16.2359 17.6609 16.1538C17.7797 15.919 17.7797 15.6417 17.6609 15.4069C17.6194 15.3248 17.5271 15.2147 16.9859 14.6735L17.693 13.9664L16.9859 14.6735L16.8078 14.4955C16.4523 14.14 16.3807 14.0761 16.3301 14.0432C16.0559 13.8649 15.7023 13.8649 15.4281 14.0432C15.3775 14.0761 15.3059 14.1399 14.9503 14.4955C14.9433 14.5025 14.9361 14.5097 14.9287 14.5172C14.8473 14.5989 14.7385 14.7081 14.6077 14.8018L14.0255 13.9888L14.6077 14.8018C14.1412 15.1359 13.5088 15.2437 12.958 15.0831C12.8042 15.0383 12.6775 14.9772 12.5842 14.9322C12.5766 14.9285 12.5692 14.9249 12.562 14.9215C11.1372 14.2374 9.8027 13.3052 8.62391 12.1264C7.44511 10.9476 6.5129 9.61312 5.82878 8.18825C5.82534 8.18109 5.82178 8.17371 5.81811 8.16611C5.77308 8.07275 5.71197 7.94604 5.66715 7.79231L6.61788 7.51516L5.66715 7.7923C5.50658 7.24146 5.61441 6.6091 5.94845 6.1426L5.94845 6.1426C6.04214 6.01175 6.15142 5.90293 6.23308 5.8216C6.24056 5.81416 6.2478 5.80694 6.25478 5.79997C6.61032 5.44442 6.67421 5.37278 6.70709 5.32222L6.70709 5.32221C6.8854 5.04797 6.8854 4.69442 6.70709 4.42018C6.67421 4.36961 6.61032 4.29797 6.25478 3.94242L6.07673 3.76437C5.53556 3.2232 5.42545 3.13087 5.34335 3.08935ZM3.69375 1.30465C4.49612 0.898814 5.44368 0.898814 6.24605 1.30465C6.65432 1.51115 7.00739 1.86526 7.40028 2.25932C7.43026 2.28938 7.46046 2.31968 7.49094 2.35016L7.66899 2.52821C7.68908 2.5483 7.70903 2.5682 7.72882 2.58796C7.98816 2.8468 8.22035 3.07853 8.38384 3.32999L7.54547 3.87508L8.38385 3.32999C8.99315 4.26713 8.99315 5.47526 8.38384 6.4124C8.22035 6.66386 7.98816 6.89559 7.72882 7.15443C7.70903 7.17418 7.68908 7.19409 7.66899 7.21418C7.64439 7.23879 7.62524 7.25794 7.60875 7.27461C7.6152 7.28815 7.62265 7.30367 7.63174 7.32261C8.2195 8.5468 9.02112 9.69516 10.0381 10.7122C11.0551 11.7292 12.2035 12.5308 13.4277 13.1185L12.9948 14.02L13.4277 13.1185C13.4466 13.1276 13.4621 13.1351 13.4757 13.1415C13.4848 13.1325 13.4946 13.1227 13.5057 13.1116C13.5149 13.1025 13.5249 13.0924 13.5361 13.0813C13.5562 13.0612 13.5761 13.0412 13.5958 13.0215C13.8547 12.7621 14.0864 12.5299 14.3379 12.3664C15.275 11.7571 16.4831 11.7571 17.4203 12.3664C17.6717 12.5299 17.9035 12.7621 18.1623 13.0215C18.1821 13.0413 18.202 13.0612 18.2221 13.0813L17.5935 13.7098L18.2221 13.0813L18.4001 13.2593C18.4306 13.2898 18.4609 13.32 18.491 13.35C18.885 13.7429 19.2391 14.096 19.4456 14.5042C19.8515 15.3066 19.8515 16.2542 19.4456 17.0565C19.2391 17.4648 18.885 17.8179 18.491 18.2108C18.4609 18.2407 18.4306 18.2709 18.4001 18.3014L18.2561 18.4454C18.2341 18.4674 18.2124 18.4891 18.1909 18.5106C17.7691 18.933 17.435 19.2674 16.9839 19.5209C16.4684 19.8104 15.7317 20.002 15.1405 20.0003C14.6241 19.9987 14.2461 19.8913 13.774 19.757C13.7559 19.7519 13.7378 19.7468 13.7195 19.7416C10.788 18.9095 8.02207 17.3394 5.7165 15.0338C3.41092 12.7282 1.84074 9.96225 1.0087 7.03078C1.00351 7.01248 0.99835 6.99433 0.99323 6.97632C0.859019 6.50419 0.751548 6.12613 0.750012 5.60978C0.748252 5.01855 0.939834 4.28185 1.2294 3.76638L1.2294 3.76638C1.48283 3.31523 1.81724 2.98122 2.23964 2.55933C2.26114 2.53785 2.28287 2.51615 2.30483 2.49419L3.01193 3.20129L2.30483 2.49419L2.44886 2.35016C2.47934 2.31968 2.50954 2.28938 2.53952 2.25932C2.93241 1.86526 3.28548 1.51115 3.69375 1.30465L4.1451 2.197L3.69375 1.30465ZM10.8072 4.00844C10.9912 3.48772 11.5625 3.2148 12.0832 3.39884C14.0729 4.10209 15.6482 5.67735 16.3514 7.66703C16.5355 8.18774 16.2626 8.75907 15.7418 8.94311C15.2211 9.12716 14.6498 8.85423 14.4657 8.33352C13.9639 6.91354 12.8367 5.78641 11.4168 5.28452C10.896 5.10048 10.6231 4.52915 10.8072 4.00844Z" fill="black" fill-opacity="0.2"/>
</svg>
