<svg width="25" height="24" viewBox="0 0 25 24" fill="none" xmlns="http://www.w3.org/2000/svg">
<path fill-rule="evenodd" clip-rule="evenodd" d="M2.75 4C2.75 3.44772 3.19772 3 3.75 3H4.35632C5.49427 3 6.49653 3.6369 7.00428 4.58889H20.645C21.5867 4.58889 22.2955 5.44652 22.1182 6.37139L20.7104 13.7121L20.703 13.7413C20.3641 15.0701 19.1674 16 17.796 16H9.14368C7.61275 16 6.3274 14.8472 6.16138 13.3253L5.35042 5.89155C5.34728 5.86278 5.34294 5.83441 5.33746 5.80647C5.3357 5.79855 5.33403 5.7906 5.33247 5.7826C5.23214 5.33024 4.8294 5 4.35632 5H3.75C3.19772 5 2.75 4.55228 2.75 4ZM7.43836 6.58889L8.14958 13.1084C8.20492 13.6157 8.63337 14 9.14368 14H17.796C18.2448 14 18.6375 13.7013 18.7585 13.2713L20.04 6.58889H7.43836ZM5.75 19C5.75 17.8954 6.64543 17 7.75 17C8.85457 17 9.75 17.8954 9.75 19C9.75 20.1046 8.85457 21 7.75 21C6.64543 21 5.75 20.1046 5.75 19ZM16.75 19C16.75 17.8954 17.6454 17 18.75 17C19.8546 17 20.75 17.8954 20.75 19C20.75 20.1046 19.8546 21 18.75 21C17.6454 21 16.75 20.1046 16.75 19Z" fill="white"/>
</svg>
