<svg width="20" height="18" viewBox="0 0 20 18" fill="none" xmlns="http://www.w3.org/2000/svg">
<path fill-rule="evenodd" clip-rule="evenodd" d="M0.5 1C0.5 0.447715 0.947715 0 1.5 0H2.10632C3.24427 0 4.24653 0.636898 4.75428 1.58889H18.395C19.3367 1.58889 20.0455 2.44652 19.8682 3.37139L18.4604 10.7121L18.453 10.7413C18.1141 12.0701 16.9174 13 15.546 13H6.89368C5.36275 13 4.0774 11.8472 3.91138 10.3253L3.10042 2.89155C3.09728 2.86278 3.09294 2.83441 3.08746 2.80647C3.0857 2.79855 3.08403 2.7906 3.08247 2.7826C2.98214 2.33024 2.5794 2 2.10632 2H1.5C0.947715 2 0.5 1.55228 0.5 1ZM5.18836 3.58889L5.89958 10.1084C5.95492 10.6157 6.38337 11 6.89368 11H15.546C15.9948 11 16.3875 10.7013 16.5085 10.2713L17.79 3.58889H5.18836ZM3.5 16C3.5 14.8954 4.39543 14 5.5 14C6.60457 14 7.5 14.8954 7.5 16C7.5 17.1046 6.60457 18 5.5 18C4.39543 18 3.5 17.1046 3.5 16ZM14.5 16C14.5 14.8954 15.3954 14 16.5 14C17.6046 14 18.5 14.8954 18.5 16C18.5 17.1046 17.6046 18 16.5 18C15.3954 18 14.5 17.1046 14.5 16Z" fill="white"/>
</svg>
