<svg width="24" height="25" viewBox="0 0 24 25" fill="none" xmlns="http://www.w3.org/2000/svg">
<g clip-path="url(#clip0_11_1199)">
<path d="M23.4028 12.8626C23.4028 18.5405 19.247 23.2457 13.8091 24.0984V16.1531H16.4618L16.967 12.8689H13.8155V10.7341C13.8155 9.8373 14.2576 8.9594 15.666 8.9594H17.0997V6.16151C17.0997 6.16151 15.7986 5.94046 14.5544 5.94046C11.9586 5.94046 10.2597 7.51309 10.2597 10.3678V12.8752H7.37335V16.1594H10.2597V24.1047C4.81546 23.2457 0.659668 18.5405 0.659668 12.8626C0.659668 6.58467 5.75019 1.49414 12.0344 1.49414C18.3186 1.49414 23.4091 6.58467 23.4091 12.8626H23.4028Z" fill="white"/>
</g>
<defs>
<clipPath id="clip0_11_1199">
<rect width="24" height="24" fill="white" transform="translate(0 0.810547)"/>
</clipPath>
</defs>
</svg>
