<svg width="24" height="24" viewBox="0 0 24 24" fill="none" xmlns="http://www.w3.org/2000/svg">
<path d="M23.4028 12.052C23.4028 17.7299 19.247 22.4352 13.8091 23.2878V15.3425H16.4617L16.967 12.0583H13.8154V9.92359C13.8154 9.02675 14.2575 8.14886 15.666 8.14886H17.0996V5.35096C17.0996 5.35096 15.7986 5.12991 14.5544 5.12991C11.9586 5.12991 10.2596 6.70254 10.2596 9.55728V12.0646H7.37332V15.3489H10.2596V23.2941C4.81543 22.4352 0.659637 17.7299 0.659637 12.052C0.659637 5.77412 5.75016 0.683594 12.0344 0.683594C18.3186 0.683594 23.4091 5.77412 23.4091 12.052H23.4028Z" fill="white"/>
</svg>
