<svg width="24" height="25" viewBox="0 0 24 25" fill="none" xmlns="http://www.w3.org/2000/svg">
<path fill-rule="evenodd" clip-rule="evenodd" d="M7.05273 0.833719C8.33236 0.77481 8.74036 0.761719 12 0.761719C15.2596 0.761719 15.6676 0.775901 16.9462 0.833719C18.2247 0.891537 19.0975 1.09554 19.8611 1.39117C20.6607 1.69336 21.3862 2.16572 21.9862 2.77663C22.5971 3.37554 23.0684 4.0999 23.3695 4.90063C23.6662 5.66426 23.8691 6.53699 23.928 7.81335C23.9869 9.09517 24 9.50317 24 12.7617C24 16.0214 23.9858 16.4294 23.928 17.709C23.8702 18.9854 23.6662 19.8581 23.3695 20.6217C23.0684 21.4225 22.5963 22.1481 21.9862 22.7479C21.3862 23.3588 20.6607 23.8301 19.8611 24.1312C19.0975 24.4279 18.2247 24.6308 16.9484 24.6897C15.6676 24.7486 15.2596 24.7617 12 24.7617C8.74036 24.7617 8.33236 24.7475 7.05273 24.6897C5.77636 24.6319 4.90364 24.4279 4.14 24.1312C3.33919 23.83 2.61362 23.358 2.01382 22.7479C1.40332 22.1486 0.930889 21.4234 0.629454 20.6228C0.333818 19.8592 0.130909 18.9864 0.072 17.7101C0.0130909 16.4283 0 16.0203 0 12.7617C0 9.50208 0.0141818 9.09408 0.072 7.81554C0.129818 6.53699 0.333818 5.66426 0.629454 4.90063C0.931334 4.09999 1.40413 3.37479 2.01491 2.77554C2.61386 2.16517 3.3387 1.69275 4.13891 1.39117C4.90255 1.09554 5.77527 0.892628 7.05164 0.833719H7.05273ZM16.8491 2.99372C15.5836 2.9359 15.204 2.9239 12 2.9239C8.796 2.9239 8.41636 2.9359 7.15091 2.99372C5.98036 3.04717 5.34545 3.24245 4.92218 3.40717C4.36255 3.62535 3.96218 3.8839 3.54218 4.3039C3.14405 4.69123 2.83765 5.16275 2.64545 5.6839C2.48073 6.10717 2.28545 6.74208 2.232 7.91263C2.17418 9.17808 2.16218 9.55772 2.16218 12.7617C2.16218 15.9657 2.17418 16.3454 2.232 17.6108C2.28545 18.7814 2.48073 19.4163 2.64545 19.8395C2.83745 20.3599 3.144 20.8323 3.54218 21.2195C3.92945 21.6177 4.40182 21.9243 4.92218 22.1163C5.34545 22.281 5.98036 22.4763 7.15091 22.5297C8.41636 22.5875 8.79491 22.5995 12 22.5995C15.2051 22.5995 15.5836 22.5875 16.8491 22.5297C18.0196 22.4763 18.6545 22.281 19.0778 22.1163C19.6375 21.8981 20.0378 21.6395 20.4578 21.2195C20.856 20.8323 21.1625 20.3599 21.3545 19.8395C21.5193 19.4163 21.7145 18.7814 21.768 17.6108C21.8258 16.3454 21.8378 15.9657 21.8378 12.7617C21.8378 9.55772 21.8258 9.17808 21.768 7.91263C21.7145 6.74208 21.5193 6.10717 21.3545 5.6839C21.1364 5.12426 20.8778 4.7239 20.4578 4.3039C20.0705 3.9058 19.5989 3.5994 19.0778 3.40717C18.6545 3.24245 18.0196 3.04717 16.8491 2.99372ZM10.4673 16.461C11.3233 16.8173 12.2764 16.8654 13.1639 16.5971C14.0514 16.3287 14.8182 15.7605 15.3334 14.9896C15.8485 14.2187 16.0801 13.2928 15.9884 12.3702C15.8968 11.4475 15.4876 10.5853 14.8309 9.93081C14.4123 9.51242 13.906 9.19206 13.3487 8.99279C12.7914 8.79352 12.1968 8.72029 11.6078 8.77839C11.0188 8.83649 10.45 9.02446 9.94233 9.32877C9.43468 9.63308 9.00081 10.0462 8.67197 10.5383C8.34312 11.0304 8.12748 11.5893 8.04056 12.1748C7.95365 12.7602 7.99762 13.3577 8.16932 13.9241C8.34101 14.4905 8.63616 15.0118 9.03351 15.4505C9.43087 15.8892 9.92054 16.2343 10.4673 16.461ZM7.63854 8.40026C8.2113 7.82751 8.89126 7.37318 9.6396 7.0632C10.3879 6.75323 11.19 6.59369 12 6.59369C12.81 6.59369 13.6121 6.75323 14.3604 7.0632C15.1087 7.37318 15.7887 7.82751 16.3615 8.40026C16.9342 8.97302 17.3885 9.65298 17.6985 10.4013C18.0085 11.1497 18.168 11.9517 18.168 12.7617C18.168 13.5717 18.0085 14.3738 17.6985 15.1221C17.3885 15.8705 16.9342 16.5504 16.3615 17.1232C15.2047 18.2799 13.6359 18.9297 12 18.9297C10.3641 18.9297 8.79527 18.2799 7.63854 17.1232C6.48181 15.9664 5.83197 14.3976 5.83197 12.7617C5.83197 11.1259 6.48181 9.55699 7.63854 8.40026ZM19.536 7.51226C19.6779 7.37838 19.7916 7.21737 19.8701 7.03878C19.9487 6.86019 19.9907 6.66765 19.9935 6.47255C19.9964 6.27745 19.9601 6.08377 19.8867 5.90297C19.8134 5.72216 19.7045 5.55791 19.5665 5.41994C19.4285 5.28197 19.2643 5.17309 19.0835 5.09974C18.9027 5.02639 18.709 4.99006 18.5139 4.9929C18.3188 4.99574 18.1263 5.0377 17.9477 5.1163C17.7691 5.19489 17.6081 5.30851 17.4742 5.45045C17.2138 5.72648 17.0712 6.09312 17.0768 6.47255C17.0823 6.85198 17.2355 7.21431 17.5038 7.48264C17.7721 7.75096 18.1345 7.90415 18.5139 7.90968C18.8933 7.91521 19.26 7.77265 19.536 7.51226Z" fill="white"/>
</svg>
