<svg width="24" height="25" viewBox="0 0 24 25" fill="none" xmlns="http://www.w3.org/2000/svg">
<g clip-path="url(#clip0_11_1201)">
<path fill-rule="evenodd" clip-rule="evenodd" d="M7.05273 0.882547C8.33236 0.823638 8.74036 0.810547 12 0.810547C15.2596 0.810547 15.6676 0.824729 16.9462 0.882547C18.2247 0.940365 19.0975 1.14437 19.8611 1.44C20.6607 1.74218 21.3862 2.21455 21.9862 2.82546C22.5971 3.42436 23.0684 4.14873 23.3695 4.94946C23.6662 5.71309 23.8691 6.58582 23.928 7.86218C23.9869 9.144 24 9.552 24 12.8105C24 16.0702 23.9858 16.4782 23.928 17.7578C23.8702 19.0342 23.6662 19.9069 23.3695 20.6705C23.0684 21.4714 22.5963 22.1969 21.9862 22.7967C21.3862 23.4076 20.6607 23.8789 19.8611 24.18C19.0975 24.4767 18.2247 24.6796 16.9484 24.7385C15.6676 24.7975 15.2596 24.8105 12 24.8105C8.74036 24.8105 8.33236 24.7964 7.05273 24.7385C5.77636 24.6807 4.90364 24.4767 4.14 24.18C3.33919 23.8789 2.61362 23.4068 2.01382 22.7967C1.40332 22.1975 0.930889 21.4722 0.629454 20.6716C0.333818 19.908 0.130909 19.0353 0.072 17.7589C0.0130909 16.4771 0 16.0691 0 12.8105C0 9.55091 0.0141818 9.14291 0.072 7.86436C0.129818 6.58582 0.333818 5.71309 0.629454 4.94946C0.931334 4.14882 1.40413 3.42362 2.01491 2.82436C2.61386 2.214 3.3387 1.74158 4.13891 1.44C4.90255 1.14437 5.77527 0.941456 7.05164 0.882547H7.05273ZM16.8491 3.04255C15.5836 2.98473 15.204 2.97273 12 2.97273C8.796 2.97273 8.41636 2.98473 7.15091 3.04255C5.98036 3.096 5.34545 3.29127 4.92218 3.456C4.36255 3.67418 3.96218 3.93273 3.54218 4.35273C3.14405 4.74006 2.83765 5.21158 2.64545 5.73273C2.48073 6.156 2.28545 6.79091 2.232 7.96146C2.17418 9.22691 2.16218 9.60655 2.16218 12.8105C2.16218 16.0145 2.17418 16.3942 2.232 17.6596C2.28545 18.8302 2.48073 19.4651 2.64545 19.8884C2.83745 20.4087 3.144 20.8811 3.54218 21.2684C3.92945 21.6665 4.40182 21.9731 4.92218 22.1651C5.34545 22.3298 5.98036 22.5251 7.15091 22.5785C8.41636 22.6364 8.79491 22.6484 12 22.6484C15.2051 22.6484 15.5836 22.6364 16.8491 22.5785C18.0196 22.5251 18.6545 22.3298 19.0778 22.1651C19.6375 21.9469 20.0378 21.6884 20.4578 21.2684C20.856 20.8811 21.1625 20.4087 21.3545 19.8884C21.5193 19.4651 21.7145 18.8302 21.768 17.6596C21.8258 16.3942 21.8378 16.0145 21.8378 12.8105C21.8378 9.60655 21.8258 9.22691 21.768 7.96146C21.7145 6.79091 21.5193 6.156 21.3545 5.73273C21.1364 5.17309 20.8778 4.77273 20.4578 4.35273C20.0705 3.95462 19.5989 3.64823 19.0778 3.456C18.6545 3.29127 18.0196 3.096 16.8491 3.04255ZM10.4673 16.5098C11.3233 16.8661 12.2764 16.9142 13.1639 16.6459C14.0514 16.3775 14.8182 15.8094 15.3334 15.0384C15.8485 14.2675 16.0801 13.3417 15.9884 12.419C15.8968 11.4964 15.4876 10.6342 14.8309 9.97964C14.4123 9.56125 13.906 9.24089 13.3487 9.04162C12.7914 8.84235 12.1968 8.76912 11.6078 8.82722C11.0188 8.88531 10.45 9.07329 9.94233 9.3776C9.43468 9.68191 9.00081 10.095 8.67197 10.5871C8.34312 11.0792 8.12748 11.6381 8.04056 12.2236C7.95365 12.8091 7.99762 13.4065 8.16932 13.9729C8.34101 14.5394 8.63616 15.0607 9.03351 15.4993C9.43087 15.938 9.92054 16.2831 10.4673 16.5098ZM7.63854 8.44909C8.2113 7.87634 8.89126 7.422 9.6396 7.11203C10.3879 6.80206 11.19 6.64252 12 6.64252C12.81 6.64252 13.6121 6.80206 14.3604 7.11203C15.1087 7.422 15.7887 7.87634 16.3615 8.44909C16.9342 9.02185 17.3885 9.70181 17.6985 10.4501C18.0085 11.1985 18.168 12.0005 18.168 12.8105C18.168 13.6205 18.0085 14.4226 17.6985 15.1709C17.3885 15.9193 16.9342 16.5992 16.3615 17.172C15.2047 18.3287 13.6359 18.9786 12 18.9786C10.3641 18.9786 8.79527 18.3287 7.63854 17.172C6.48181 16.0153 5.83197 14.4464 5.83197 12.8105C5.83197 11.1747 6.48181 9.60582 7.63854 8.44909ZM19.536 7.56109C19.6779 7.4272 19.7916 7.2662 19.8701 7.08761C19.9487 6.90902 19.9907 6.71648 19.9935 6.52138C19.9964 6.32628 19.9601 6.1326 19.8867 5.95179C19.8134 5.77099 19.7045 5.60674 19.5665 5.46877C19.4285 5.3308 19.2643 5.22192 19.0835 5.14857C18.9027 5.07521 18.709 5.03888 18.5139 5.04173C18.3188 5.04457 18.1263 5.08653 17.9477 5.16512C17.7691 5.24372 17.6081 5.35734 17.4742 5.49927C17.2138 5.77531 17.0712 6.14195 17.0768 6.52138C17.0823 6.90081 17.2355 7.26314 17.5038 7.53147C17.7721 7.79979 18.1345 7.95298 18.5139 7.95851C18.8933 7.96404 19.26 7.82148 19.536 7.56109Z" fill="white"/>
</g>
<defs>
<clipPath id="clip0_11_1201">
<rect width="24" height="24" fill="white" transform="translate(0 0.810547)"/>
</clipPath>
</defs>
</svg>
