<svg width="20" height="21" viewBox="0 0 20 21" fill="none" xmlns="http://www.w3.org/2000/svg">
<path fill-rule="evenodd" clip-rule="evenodd" d="M2.5 8.83228C2.5 4.69572 5.8625 1.33398 10 1.33398C14.1375 1.33398 17.5 4.69572 17.5 8.83228C17.5 9.91953 17.1375 11.1318 16.625 12.2815C16.1 13.4562 15.4 14.631 14.6375 15.6932C13.8875 16.743 13.0625 17.6928 12.3125 18.3926C11.9375 18.7425 11.5625 19.0425 11.2 19.2549C10.8625 19.4549 10.4375 19.6548 10 19.6548C9.5625 19.6548 9.1375 19.4549 8.8 19.2549C8.4375 19.0425 8.0625 18.7425 7.6875 18.3926C6.9375 17.6928 6.1125 16.743 5.3625 15.6932C4.6125 14.6435 3.9 13.4562 3.375 12.2815C2.8625 11.1193 2.5 9.91953 2.5 8.83228ZM5.8375 8.83228C5.8375 6.5328 7.7 4.67073 10 4.67073C12.3 4.67073 14.1625 6.5328 14.1625 8.83228C14.1625 11.1318 12.3 12.9938 10 12.9938C7.7 12.9938 5.8375 11.1318 5.8375 8.83228Z" fill="#C0C5CD"/>
</svg>
