<svg width="20" height="20" viewBox="0 0 20 20" fill="none" xmlns="http://www.w3.org/2000/svg">
<g opacity="0.5">
<path fill-rule="evenodd" clip-rule="evenodd" d="M2.5 8.33228C2.5 4.19572 5.8625 0.833984 10 0.833984C14.1375 0.833984 17.5 4.19572 17.5 8.33228C17.5 9.41953 17.1375 10.6318 16.625 11.7815C16.1 12.9562 15.4 14.131 14.6375 15.1932C13.8875 16.243 13.0625 17.1928 12.3125 17.8926C11.9375 18.2425 11.5625 18.5425 11.2 18.7549C10.8625 18.9549 10.4375 19.1548 10 19.1548C9.5625 19.1548 9.1375 18.9549 8.8 18.7549C8.4375 18.5425 8.0625 18.2425 7.6875 17.8926C6.9375 17.1928 6.1125 16.243 5.3625 15.1932C4.6125 14.1435 3.9 12.9562 3.375 11.7815C2.8625 10.6193 2.5 9.41953 2.5 8.33228ZM5.8375 8.33228C5.8375 6.0328 7.7 4.17073 10 4.17073C12.3 4.17073 14.1625 6.0328 14.1625 8.33228C14.1625 10.6318 12.3 12.4938 10 12.4938C7.7 12.4938 5.8375 10.6318 5.8375 8.33228Z" fill="white"/>
</g>
</svg>
