<svg width="20" height="21" viewBox="0 0 20 21" fill="none" xmlns="http://www.w3.org/2000/svg">
<path fill-rule="evenodd" clip-rule="evenodd" d="M7.63042 1.33398H12.3571C12.7948 1.33398 13.1699 1.33398 13.4825 1.35898C13.8076 1.38397 14.1453 1.44646 14.4579 1.60892C14.933 1.84637 15.3082 2.23378 15.5458 2.69617C15.7083 3.0086 15.7708 3.33353 15.7958 3.67095C15.8208 3.98338 15.8208 4.3583 15.8208 4.7957V16.1931C15.8208 16.6305 15.8208 17.0054 15.7958 17.3179C15.7708 17.6428 15.7083 17.9802 15.5458 18.2926C15.3082 18.7675 14.9205 19.1424 14.4579 19.3799C14.1453 19.5423 13.8201 19.6048 13.4825 19.6298C13.1699 19.6548 12.7948 19.6548 12.3571 19.6548H7.63042C7.19277 19.6548 6.81763 19.6548 6.50502 19.6298C6.17991 19.6048 5.84229 19.5423 5.52967 19.3799C5.0545 19.1424 4.67937 18.755 4.44179 18.2926C4.27923 17.9802 4.2167 17.6553 4.1917 17.3179C4.16669 17.0179 4.16669 16.6305 4.16669 16.1931V4.7957C4.16669 4.3583 4.16669 3.98338 4.1917 3.67095C4.2167 3.34603 4.27923 3.0086 4.44179 2.69617C4.67937 2.22128 5.06701 1.84637 5.52967 1.60892C5.84229 1.44646 6.17991 1.38397 6.50502 1.35898C6.81763 1.33398 7.19277 1.33398 7.63042 1.33398ZM8.33067 4.67073C8.33067 4.20833 8.70581 3.83342 9.16847 3.83342H10.8316C11.2942 3.83342 11.6694 4.20833 11.6694 4.67073C11.6694 5.13312 11.2942 5.50804 10.8316 5.50804H9.16847C8.70581 5.50804 8.33067 5.13312 8.33067 4.67073Z" fill="#C0C5CD"/>
</svg>
