<svg width="20" height="20" viewBox="0 0 20 20" fill="none" xmlns="http://www.w3.org/2000/svg">
<g opacity="0.5">
<path fill-rule="evenodd" clip-rule="evenodd" d="M7.63039 0.833984H12.3571C12.7947 0.833984 13.1699 0.833984 13.4825 0.858979C13.8076 0.883973 14.1452 0.946459 14.4578 1.10892C14.933 1.34637 15.3081 1.73378 15.5457 2.19617C15.7083 2.5086 15.7708 2.83353 15.7958 3.17095C15.8208 3.48338 15.8208 3.8583 15.8208 4.2957V15.6931C15.8208 16.1305 15.8208 16.5054 15.7958 16.8179C15.7708 17.1428 15.7083 17.4802 15.5457 17.7926C15.3081 18.2675 14.9205 18.6424 14.4578 18.8799C14.1452 19.0423 13.8201 19.1048 13.4825 19.1298C13.1699 19.1548 12.7947 19.1548 12.3571 19.1548H7.63039C7.19274 19.1548 6.8176 19.1548 6.50499 19.1298C6.17988 19.1048 5.84225 19.0423 5.52964 18.8799C5.05447 18.6424 4.67934 18.255 4.44175 17.7926C4.2792 17.4802 4.21667 17.1553 4.19167 16.8179C4.16666 16.5179 4.16666 16.1305 4.16666 15.6931V4.2957C4.16666 3.8583 4.16666 3.48338 4.19167 3.17095C4.21667 2.84603 4.2792 2.5086 4.44175 2.19617C4.67934 1.72128 5.06698 1.34637 5.52964 1.10892C5.84225 0.946459 6.17988 0.883973 6.50499 0.858979C6.8176 0.833984 7.19274 0.833984 7.63039 0.833984ZM8.33064 4.17073C8.33064 3.70833 8.70578 3.33342 9.16844 3.33342H10.8315C11.2942 3.33342 11.6693 3.70833 11.6693 4.17073C11.6693 4.63312 11.2942 5.00804 10.8315 5.00804H9.16844C8.70578 5.00804 8.33064 4.63312 8.33064 4.17073Z" fill="white"/>
</g>
</svg>
