<svg width="24" height="25" viewBox="0 0 24 25" fill="none" xmlns="http://www.w3.org/2000/svg">
<g clip-path="url(#clip0_11_1205)">
<path fill-rule="evenodd" clip-rule="evenodd" d="M15.8963 18.7723C15.7567 19.9249 15.0583 20.848 13.9765 21.3102C13.374 21.5677 12.5651 21.7067 11.9248 21.663C10.926 21.6248 9.98763 21.3819 9.12266 20.9379C8.81365 20.7792 8.353 20.4623 7.99929 20.1654C7.9097 20.0904 7.89906 20.0424 7.95834 19.9583C7.99035 19.91 8.04936 19.8229 8.17981 19.6318C8.369 19.3546 8.39261 19.3198 8.41389 19.2873C8.47442 19.1944 8.57277 19.1863 8.66979 19.2627C8.67998 19.2706 8.67998 19.2706 8.68767 19.2766C8.70358 19.289 8.70358 19.289 8.74114 19.3181C8.77914 19.3478 8.80167 19.3652 8.81079 19.3721C9.74362 20.1027 10.8301 20.524 11.9269 20.5662C13.4529 20.5454 14.5502 19.8592 14.7468 18.8057C14.963 17.6462 14.0528 16.6446 12.272 16.0863C11.7151 15.9117 10.3073 15.3482 10.0477 15.1959C8.82876 14.4807 8.25885 13.5439 8.33986 12.3869C8.46396 10.7829 9.95293 9.58668 11.8343 9.57867C12.6757 9.57695 13.5153 9.7518 14.3219 10.0917C14.6074 10.212 15.1174 10.4895 15.2934 10.621C15.3948 10.6954 15.4148 10.7822 15.3567 10.8758C15.3243 10.9301 15.2706 11.0162 15.1575 11.1956L15.1562 11.1976C15.0074 11.4339 15.0027 11.4413 14.9686 11.4966C14.9096 11.5865 14.8402 11.5948 14.7338 11.5273C13.8707 10.9475 12.9139 10.6558 11.8616 10.6347C10.5515 10.6607 9.56962 11.4403 9.50506 12.5024C9.4879 13.4617 10.2074 14.1621 11.7615 14.6961C14.9163 15.7098 16.1235 16.8983 15.8963 18.7723ZM12.0003 2.21189C14.0542 2.21189 15.7283 4.16099 15.8066 6.60086H8.19402C8.27235 4.16099 9.9465 2.21189 12.0003 2.21189ZM22.6297 7.05957C22.6297 6.80622 22.4257 6.60086 22.1741 6.60086H17.2398C17.1188 3.37934 14.8193 0.810547 12.0003 0.810547C9.1814 0.810547 6.88191 3.37934 6.76084 6.60086L1.8195 6.60095C1.57174 6.60545 1.37226 6.8091 1.37226 7.05957C1.37226 7.07155 1.37271 7.08343 1.3736 7.09513H1.37012L2.0745 22.6225C2.07459 22.6657 2.0762 22.7093 2.07942 22.7531C2.08014 22.763 2.08094 22.7728 2.08175 22.7827L2.08327 22.8154L2.08496 22.8171C2.19199 23.8976 2.97613 24.7679 4.04237 24.808L4.04478 24.8104H19.7191C19.7265 24.8105 19.734 24.8105 19.7414 24.8105C19.7488 24.8105 19.7562 24.8105 19.7636 24.8104H19.797C20.8818 24.7807 21.7613 23.8977 21.8541 22.8039L21.8553 22.7887C21.8562 22.7772 21.8571 22.7657 21.8578 22.7542C21.8595 22.7267 21.8606 22.6992 21.8611 22.6719L22.6297 7.08326C22.6301 7.07542 22.6297 7.06749 22.6297 7.05957Z" fill="white"/>
</g>
<defs>
<clipPath id="clip0_11_1205">
<rect width="24" height="24" fill="white" transform="translate(0 0.810547)"/>
</clipPath>
</defs>
</svg>
