<svg width="22" height="25" viewBox="0 0 22 25" fill="none" xmlns="http://www.w3.org/2000/svg">
<path fill-rule="evenodd" clip-rule="evenodd" d="M14.8963 18.7234C14.7567 19.876 14.0583 20.7991 12.9765 21.2614C12.374 21.5188 11.5651 21.6579 10.9248 21.6142C9.926 21.576 8.98763 21.3331 8.12266 20.8891C7.81365 20.7303 7.353 20.4134 6.99929 20.1166C6.9097 20.0416 6.89906 19.9935 6.95834 19.9094C6.99035 19.8612 7.04936 19.7741 7.17981 19.583C7.369 19.3058 7.39261 19.271 7.41389 19.2385C7.47442 19.1456 7.57277 19.1375 7.66979 19.2139C7.67998 19.2218 7.67998 19.2218 7.68767 19.2278C7.70358 19.2401 7.70358 19.2401 7.74114 19.2693C7.77914 19.2989 7.80167 19.3164 7.81079 19.3232C8.74362 20.0539 9.83006 20.4752 10.9269 20.5173C12.4529 20.4965 13.5502 19.8104 13.7468 18.7569C13.963 17.5973 13.0528 16.5957 11.272 16.0374C10.7151 15.8629 9.30727 15.2994 9.04771 15.1471C7.82876 14.4319 7.25885 13.4951 7.33986 12.338C7.46396 10.7341 8.95293 9.53785 10.8343 9.52984C11.6757 9.52812 12.5153 9.70297 13.3219 10.0428C13.6074 10.1632 14.1174 10.4407 14.2934 10.5721C14.3948 10.6466 14.4148 10.7334 14.3567 10.827C14.3243 10.8813 14.2706 10.9674 14.1575 11.1468L14.1562 11.1488C14.0074 11.3851 14.0027 11.3925 13.9686 11.4478C13.9096 11.5376 13.8402 11.546 13.7338 11.4785C12.8707 10.8987 11.9139 10.607 10.8616 10.5859C9.55154 10.6118 8.56962 11.3915 8.50506 12.4536C8.4879 13.4129 9.20739 14.1133 10.7615 14.6472C13.9163 15.661 15.1235 16.8495 14.8963 18.7234ZM11.0003 2.16307C13.0542 2.16307 14.7283 4.11217 14.8066 6.55203H7.19402C7.27235 4.11217 8.9465 2.16307 11.0003 2.16307ZM21.6297 7.01074C21.6297 6.75739 21.4257 6.55203 21.1741 6.55203H16.2398C16.1188 3.33051 13.8193 0.761719 11.0003 0.761719C8.1814 0.761719 5.88191 3.33051 5.76084 6.55203L0.819501 6.55212C0.571741 6.55662 0.372264 6.76027 0.372264 7.01074C0.372264 7.02272 0.372712 7.0346 0.373604 7.04631H0.370117L1.0745 22.5737C1.07459 22.6169 1.0762 22.6605 1.07942 22.7043C1.08014 22.7142 1.08094 22.724 1.08175 22.7338L1.08327 22.7666L1.08496 22.7683C1.19199 23.8488 1.97613 24.719 3.04237 24.7592L3.04478 24.7615H18.7191C18.7265 24.7616 18.734 24.7617 18.7414 24.7617C18.7488 24.7617 18.7562 24.7616 18.7636 24.7615H18.797C19.8818 24.7319 20.7613 23.8489 20.8541 22.7551L20.8553 22.7399C20.8562 22.7283 20.8571 22.7169 20.8578 22.7054C20.8595 22.6778 20.8606 22.6504 20.8611 22.6231L21.6297 7.03443C21.6301 7.0266 21.6297 7.01867 21.6297 7.01074Z" fill="white"/>
</svg>
