<svg width="24" height="25" viewBox="0 0 24 25" fill="none" xmlns="http://www.w3.org/2000/svg">
<g clip-path="url(#clip0_11_1197)">
<g clip-path="url(#clip1_11_1197)">
<path d="M12.2044 1.89453C13.4644 1.89453 14.7344 1.89453 15.9944 1.89453C15.9944 1.98453 15.9944 2.07453 15.9944 2.17453C15.9944 2.38453 16.0144 2.60453 16.0544 2.80453C16.1444 3.33453 16.3144 3.84453 16.5644 4.33453C16.8444 4.86453 17.1944 5.34453 17.6344 5.75453C18.0444 6.14453 18.5044 6.45453 19.0144 6.69453C19.7244 7.02453 20.4644 7.19453 21.2444 7.19453V10.9845C19.3244 10.9745 17.5744 10.4145 15.9944 9.30453V9.39453C15.9944 11.7945 15.9944 14.1845 15.9944 16.5845C15.9944 16.7845 15.9944 16.9945 15.9944 17.1945C15.9944 17.4345 15.9744 17.6745 15.9444 17.9045C15.8844 18.3445 15.7944 18.7845 15.6544 19.2145C15.2644 20.3745 14.6244 21.3745 13.7144 22.2045C12.9144 22.9345 11.9844 23.4545 10.9344 23.7545C10.3944 23.9045 9.84444 23.9945 9.29444 24.0145C9.27444 24.0145 9.25444 24.0145 9.23444 24.0145H8.82444C8.82444 24.0145 8.81444 24.0145 8.80444 24.0145C8.73444 24.0145 8.65444 24.0145 8.58444 24.0045C8.27444 23.9845 7.96444 23.9445 7.65444 23.8845C7.03444 23.7645 6.44444 23.5545 5.88444 23.2745C5.17444 22.9145 4.54444 22.4445 3.99444 21.8645C3.47444 21.3245 3.05444 20.7145 2.73444 20.0345C2.34444 19.2145 2.12444 18.3545 2.07444 17.4545C2.07444 17.4045 2.06444 17.3545 2.05444 17.3045C2.05444 17.1245 2.05444 16.9345 2.05444 16.7545C2.05444 16.7045 2.07444 16.6645 2.07444 16.6145C2.09444 16.2845 2.13444 15.9545 2.20444 15.6245C2.33444 14.9745 2.55444 14.3545 2.86444 13.7645C3.23444 13.0645 3.70444 12.4445 4.27444 11.9145C5.04444 11.1945 5.92444 10.6745 6.92444 10.3545C7.42444 10.1945 7.94444 10.0945 8.46444 10.0545C8.70444 10.0345 8.95444 10.0245 9.19444 10.0345C9.40444 10.0445 9.61444 10.0645 9.82444 10.0745C9.87444 10.0745 9.93444 10.0845 9.98444 10.0945V13.9645C9.98444 13.9645 9.95444 13.9645 9.93444 13.9545C9.74444 13.8945 9.54444 13.8545 9.34444 13.8345C8.96444 13.7945 8.59444 13.8245 8.22444 13.9145C7.64444 14.0645 7.14444 14.3545 6.72444 14.7845C6.48444 15.0245 6.29444 15.3045 6.14444 15.6045C5.82444 16.2545 5.73444 16.9445 5.88444 17.6545C6.06444 18.5245 6.52444 19.2045 7.26444 19.6945C7.92444 20.1345 8.64444 20.2845 9.43444 20.1845C9.82444 20.1345 10.1944 20.0145 10.5444 19.8245C11.1444 19.4845 11.5944 19.0145 11.8944 18.3845C12.0944 17.9545 12.2044 17.5045 12.2044 17.0345C12.2044 12.0245 12.2044 7.01453 12.2044 2.00453C12.2044 1.97453 12.2044 1.94453 12.2044 1.91453V1.89453Z" fill="white"/>
</g>
</g>
<defs>
<clipPath id="clip0_11_1197">
<rect width="24" height="24" fill="white" transform="translate(0 0.810547)"/>
</clipPath>
<clipPath id="clip1_11_1197">
<rect width="19.2" height="22.12" fill="white" transform="translate(2.04443 1.89453)"/>
</clipPath>
</defs>
</svg>
