<svg width="20" height="23" viewBox="0 0 20 23" fill="none" xmlns="http://www.w3.org/2000/svg">
<path d="M10.2044 0.0820312C11.4644 0.0820312 12.7344 0.0820312 13.9944 0.0820312C13.9944 0.172031 13.9944 0.262031 13.9944 0.362031C13.9944 0.572031 14.0144 0.792031 14.0544 0.992031C14.1444 1.52203 14.3144 2.03203 14.5644 2.52203C14.8444 3.05203 15.1944 3.53203 15.6344 3.94203C16.0444 4.33203 16.5044 4.64203 17.0144 4.88203C17.7244 5.21203 18.4644 5.38203 19.2444 5.38203V9.17203C17.3244 9.16203 15.5744 8.60203 13.9944 7.49203V7.58203C13.9944 9.98203 13.9944 12.372 13.9944 14.772C13.9944 14.972 13.9944 15.182 13.9944 15.382C13.9944 15.622 13.9744 15.862 13.9444 16.092C13.8844 16.532 13.7944 16.972 13.6544 17.402C13.2644 18.562 12.6244 19.562 11.7144 20.392C10.9144 21.122 9.98444 21.642 8.93444 21.942C8.39444 22.092 7.84444 22.182 7.29444 22.202C7.27444 22.202 7.25444 22.202 7.23444 22.202H6.82444C6.82444 22.202 6.81444 22.202 6.80444 22.202C6.73444 22.202 6.65444 22.202 6.58444 22.192C6.27444 22.172 5.96444 22.132 5.65444 22.072C5.03444 21.952 4.44444 21.742 3.88444 21.462C3.17444 21.102 2.54444 20.632 1.99444 20.052C1.47444 19.512 1.05444 18.902 0.734443 18.222C0.344443 17.402 0.124443 16.542 0.0744434 15.642C0.0744434 15.592 0.0644434 15.542 0.0544434 15.492C0.0544434 15.312 0.0544434 15.122 0.0544434 14.942C0.0544434 14.892 0.0744434 14.852 0.0744434 14.802C0.0944434 14.472 0.134443 14.142 0.204443 13.812C0.334443 13.162 0.554443 12.542 0.864443 11.952C1.23444 11.252 1.70444 10.632 2.27444 10.102C3.04444 9.38203 3.92444 8.86203 4.92444 8.54203C5.42444 8.38203 5.94444 8.28203 6.46444 8.24203C6.70444 8.22203 6.95444 8.21203 7.19444 8.22203C7.40444 8.23203 7.61444 8.25203 7.82444 8.26203C7.87444 8.26203 7.93444 8.27203 7.98444 8.28203V12.152C7.98444 12.152 7.95444 12.152 7.93444 12.142C7.74444 12.082 7.54444 12.042 7.34444 12.022C6.96444 11.982 6.59444 12.012 6.22444 12.102C5.64444 12.252 5.14444 12.542 4.72444 12.972C4.48444 13.212 4.29444 13.492 4.14444 13.792C3.82444 14.442 3.73444 15.132 3.88444 15.842C4.06444 16.712 4.52444 17.392 5.26444 17.882C5.92444 18.322 6.64444 18.472 7.43444 18.372C7.82444 18.322 8.19444 18.202 8.54444 18.012C9.14444 17.672 9.59444 17.202 9.89444 16.572C10.0944 16.142 10.2044 15.692 10.2044 15.222C10.2044 10.212 10.2044 5.20203 10.2044 0.192031C10.2044 0.162031 10.2044 0.132031 10.2044 0.102031V0.0820312Z" fill="white"/>
</svg>
