<svg width="24" height="18" viewBox="0 0 24 18" fill="none" xmlns="http://www.w3.org/2000/svg">
<path d="M23.4947 3.38511C23.3557 2.89248 23.0905 2.44405 22.7178 2.08405C22.3452 1.72405 21.8842 1.46511 21.3789 1.33248C19.5094 0.839844 12 0.839844 12 0.839844C12 0.839844 4.49048 0.839844 2.621 1.33248C2.11574 1.46511 1.64837 1.72405 1.28206 2.08405C0.909425 2.44405 0.644162 2.89248 0.505215 3.38511C0.157846 5.24195 -0.0126799 7.11774 -4.82876e-05 8.99984C-0.0126799 10.8819 0.157846 12.7577 0.505215 14.6146C0.644162 15.1072 0.909425 15.5556 1.28206 15.9156C1.65469 16.2756 2.11574 16.5346 2.621 16.6672C4.49048 17.1598 12 17.1598 12 17.1598C12 17.1598 19.5094 17.1598 21.3789 16.6672C21.8842 16.5346 22.3515 16.2756 22.7178 15.9156C23.0905 15.5556 23.3557 15.1072 23.4947 14.6146C23.8421 12.7641 24.0126 10.8819 24 8.99984C24.0126 7.11774 23.8421 5.24195 23.4947 3.38511ZM9.59995 12.4925V5.5009L15.8336 8.99984L9.59995 12.4988V12.4925Z" fill="white"/>
</svg>
