<svg width="24" height="25" viewBox="0 0 24 25" fill="none" xmlns="http://www.w3.org/2000/svg">
<g clip-path="url(#clip0_11_1195)">
<path d="M23.4947 7.19565C23.3558 6.70302 23.0905 6.2546 22.7179 5.8946C22.3452 5.5346 21.8842 5.27565 21.3789 5.14302C19.5095 4.65039 12 4.65039 12 4.65039C12 4.65039 4.49051 4.65039 2.62103 5.14302C2.11577 5.27565 1.6484 5.5346 1.28209 5.8946C0.909456 6.2546 0.644193 6.70302 0.505245 7.19565C0.157877 9.0525 -0.0126493 10.9283 -1.777e-05 12.8104C-0.0126493 14.6925 0.157877 16.5683 0.505245 18.4251C0.644193 18.9178 0.909456 19.3662 1.28209 19.7262C1.65472 20.0862 2.11577 20.3451 2.62103 20.4778C4.49051 20.9704 12 20.9704 12 20.9704C12 20.9704 19.5095 20.9704 21.3789 20.4778C21.8842 20.3451 22.3516 20.0862 22.7179 19.7262C23.0905 19.3662 23.3558 18.9178 23.4947 18.4251C23.8421 16.5746 24.0126 14.6925 24 12.8104C24.0126 10.9283 23.8421 9.0525 23.4947 7.19565ZM9.59998 16.303V9.31144L15.8337 12.8104L9.59998 16.3093V16.303Z" fill="white"/>
</g>
<defs>
<clipPath id="clip0_11_1195">
<rect width="24" height="24" fill="white" transform="translate(0 0.810547)"/>
</clipPath>
</defs>
</svg>
